<svg id="visual" viewBox="0 0 960 540" width="960" height="540" xmlns="http://www.w3.org/2000/svg" xmlns:xlink="http://www.w3.org/1999/xlink" version="1.1"><rect x="0" y="0" width="960" height="540" fill="#001220"></rect><defs><linearGradient id="grad1_0" x1="43.8%" y1="0%" x2="100%" y2="100%"><stop offset="14.444444444444446%" stop-color="#001220" stop-opacity="1"></stop><stop offset="85.55555555555554%" stop-color="#001220" stop-opacity="1"></stop></linearGradient></defs><defs><linearGradient id="grad2_0" x1="0%" y1="0%" x2="56.3%" y2="100%"><stop offset="14.444444444444446%" stop-color="#001220" stop-opacity="1"></stop><stop offset="85.55555555555554%" stop-color="#001220" stop-opacity="1"></stop></linearGradient></defs><g transform="translate(960, 0)"><path d="M0 270C-31.6 258.6 -63.1 247.2 -98 236.5C-132.8 225.8 -171 215.7 -190.9 190.9C-210.8 166.1 -212.5 126.5 -222.7 92.2C-232.8 57.9 -251.4 29 -270 0L0 0Z" fill="#FBAE3C"></path></g><g transform="translate(0, 540)"><path d="M0 -270C36 -267 72 -264.1 103.3 -249.4C134.6 -234.8 161.3 -208.6 181 -181C200.8 -153.4 213.6 -124.5 227.3 -94.1C241 -63.7 255.5 -31.9 270 0L0 0Z" fill="#FBAE3C"></path></g></svg>